<?xml version="1.0" encoding="UTF-8"?>
<svg xmlns="http://www.w3.org/2000/svg" xmlns:xlink="http://www.w3.org/1999/xlink" width="12pt" height="12pt" viewBox="0 0 12 12" version="1.1">
<g id="surface1">
<path style=" stroke:none;fill-rule:nonzero;fill:rgb(92.54902%,42.745098%,18.039216%);fill-opacity:1;" d="M 11.976562 6.792969 L 11.304688 4.726562 L 9.976562 0.628906 C 9.945312 0.535156 9.855469 0.476562 9.757812 0.476562 C 9.660156 0.476562 9.570312 0.535156 9.539062 0.628906 L 8.210938 4.726562 L 3.789062 4.726562 L 2.460938 0.628906 C 2.429688 0.535156 2.339844 0.476562 2.242188 0.476562 C 2.144531 0.476562 2.054688 0.535156 2.023438 0.628906 L 0.695312 4.726562 L 0.0234375 6.792969 C -0.0351562 6.980469 0.03125 7.1875 0.191406 7.304688 L 6 11.527344 L 11.808594 7.304688 C 11.972656 7.1875 12.039062 6.984375 11.976562 6.792969 "/>
<path style=" stroke:none;fill-rule:nonzero;fill:rgb(61.176471%,60.784314%,60.784314%);fill-opacity:1;" d="M 6 11.519531 L 8.210938 4.722656 L 3.792969 4.722656 Z M 6 11.519531 "/>
<path style=" stroke:none;fill-rule:nonzero;fill:rgb(77.647059%,77.647059%,77.254902%);fill-opacity:1;" d="M 6 11.519531 L 3.789062 4.722656 L 0.695312 4.722656 Z M 6 11.519531 "/>
<path style=" stroke:none;fill-rule:nonzero;fill:rgb(92.54902%,92.54902%,92.54902%);fill-opacity:1;" d="M 0.695312 4.726562 L 0.0234375 6.792969 C -0.0390625 6.980469 0.0273438 7.1875 0.1875 7.304688 L 6 11.527344 Z M 0.695312 4.726562 "/>
<path style=" stroke:none;fill-rule:nonzero;fill:rgb(61.176471%,60.784314%,60.784314%);fill-opacity:1;" d="M 0.695312 4.726562 L 3.792969 4.726562 L 2.460938 0.632812 C 2.429688 0.539062 2.339844 0.476562 2.242188 0.476562 C 2.144531 0.476562 2.054688 0.539062 2.023438 0.632812 Z M 0.695312 4.726562 "/>
<path style=" stroke:none;fill-rule:nonzero;fill:rgb(77.647059%,77.647059%,77.254902%);fill-opacity:1;" d="M 6 11.519531 L 8.210938 4.722656 L 11.304688 4.722656 Z M 6 11.519531 "/>
<path style=" stroke:none;fill-rule:nonzero;fill:rgb(92.54902%,92.54902%,92.54902%);fill-opacity:1;" d="M 11.304688 4.726562 L 11.976562 6.792969 C 12.039062 6.980469 11.972656 7.1875 11.8125 7.304688 L 6 11.519531 L 11.304688 4.722656 Z M 11.304688 4.726562 "/>
<path style=" stroke:none;fill-rule:nonzero;fill:rgb(61.176471%,60.784314%,60.784314%);fill-opacity:1;" d="M 11.304688 4.726562 L 8.210938 4.726562 L 9.539062 0.632812 C 9.570312 0.539062 9.660156 0.476562 9.757812 0.476562 C 9.855469 0.476562 9.945312 0.539062 9.976562 0.632812 Z M 11.304688 4.726562 "/>
</g>
</svg>
